<?xml version="1.0" encoding="utf-8"?>
<!-- Generator: Adobe Illustrator 25.4.1, SVG Export Plug-In . SVG Version: 6.00 Build 0)  -->
<svg version="1.1"
	 id="svg10" xmlns:cc="http://creativecommons.org/ns#" xmlns:dc="http://purl.org/dc/elements/1.1/" xmlns:rdf="http://www.w3.org/1999/02/22-rdf-syntax-ns#" xmlns:svg="http://www.w3.org/2000/svg"
	 xmlns="http://www.w3.org/2000/svg" xmlns:xlink="http://www.w3.org/1999/xlink" x="0px" y="0px" viewBox="0 0 241 97"
	 style="enable-background:new 0 0 241 97;" xml:space="preserve">
<style type="text/css">
	.st0{fill-rule:evenodd;clip-rule:evenodd;fill:#4F26CC;}
	.st1{fill:#051142;}
	.st2{fill:#1F1B1B;}
</style>
<g id="container" transform="translate(77.75,103.5)">
	<g id="g8">
		<path id="path4" class="st0" d="M33.7-96C-9-93.1-32.4-72.4-36.5-34h-31.8C-51.9-75.3-17.5-98.5,33.7-96z"/>
		<path id="path6" class="st0" d="M13.7-89.2c28-8.2,48.7-3.1,62,15.2H55.2C45.3-86.4,31.5-91.5,13.7-89.2z"/>
	</g>
	<g id="text14">
		<path id="path49" class="st1" d="M-13.6-70.4l-3.3,23.3h10.9l-0.6,4.7h-18.6c1.7-1.3,2.6-2.9,2.9-5l2.4-17.1
			c0-0.2,0.1-0.6,0.1-1.1c0-0.3,0-0.6,0-0.8l0.1-0.8c0.1-0.7-0.1-1.2-0.4-1.7c-0.3-0.5-0.7-1-1.2-1.4H-13.6z"/>
	</g>
	<g id="text16">
		<path id="path52" class="st1" d="M10-62.9c1.9,0,3.6,0.4,5.2,1.2s2.8,2,3.6,3.5c0.9,1.5,1.1,3.4,0.8,5.5l-0.3,2L2.4-50.5
			c0.1,1.4,0.6,2.5,1.5,3.3C4.8-46.4,6-46,7.6-46c1.4,0,2.7-0.2,3.9-0.7c1.2-0.5,2.2-1.2,3.2-2.1l3.6,2.4c-3.1,3-6.8,4.6-11.2,4.6
			c-2.1,0-4-0.5-5.6-1.4c-1.6-0.9-2.8-2.2-3.5-3.8c-0.8-1.7-1-3.5-0.8-5.5c0.3-1.9,1-3.6,2.3-5.2c1.3-1.6,2.8-2.9,4.7-3.8
			C6-62.5,8-62.9,10-62.9z M3-53.9L14.5-54c-0.2-1.5-0.7-2.7-1.4-3.4s-1.3-1.1-1.9-1.2c-0.6-0.1-1.2-0.2-1.8-0.2
			c-1.4,0-2.7,0.4-3.8,1.2C4.5-56.8,3.6-55.6,3-53.9z"/>
	</g>
	<g id="text18">
		<path id="path55" class="st1" d="M40.3-59.8l0.4-2.5h5.2l-4,27.7h-1.7h-5.3c0.6-0.3,1.1-0.9,1.6-1.8c0.5-0.9,0.8-2.1,1-3.6
			l0.7-4.9c-0.7,0.7-1.7,1.3-2.8,1.8c-1.1,0.4-2.3,0.6-3.4,0.6c-2,0-3.8-0.4-5.4-1.3c-1.6-0.9-2.7-2.1-3.5-3.6
			c-0.8-1.5-1.1-3.2-0.8-5c0.3-1.8,1-3.4,2.2-5c1.2-1.5,2.7-2.8,4.6-3.6c1.8-0.9,3.7-1.4,5.7-1.4c1.1,0,2.2,0.2,3.3,0.7
			C39.1-61.3,39.9-60.6,40.3-59.8z M32.6-47.1c1.1,0,2.1-0.2,3-0.7c1-0.5,1.8-1.1,2.4-2c0.6-0.9,1-1.8,1.2-2.7
			c0.1-0.9,0-1.8-0.4-2.6c-0.4-0.8-1-1.4-1.9-1.9c-0.8-0.5-1.8-0.7-2.8-0.7c-1,0-2,0.2-3,0.7c-1,0.5-1.8,1.1-2.4,1.9
			c-0.6,0.8-1,1.7-1.2,2.6c-0.1,1,0,1.9,0.4,2.7s1,1.5,1.8,2C30.7-47.3,31.6-47.1,32.6-47.1z"/>
	</g>
	<g id="text20">
		<path id="path58" class="st1" d="M66-51.3l1.6-11.1h5.2l-2.8,20h-5.2l0.4-2.9c-0.6,0.7-1.6,1.4-2.8,2c-1.2,0.6-2.4,0.8-3.5,0.8
			c-1.9,0-3.6-0.4-5-1.2c-1.4-0.8-2.3-2-2.9-3.5c-0.6-1.5-0.7-3.3-0.4-5.3l0.6-4.6c0.2-1.5,0.2-2.7,0-3.6c-0.2-0.9-0.6-1.5-1.1-1.8
			H52h5.2l-1.4,10c-0.2,1.5-0.1,2.7,0.4,3.7c0.5,1,1.6,1.5,3.3,1.5c1.1,0,2.2-0.2,3.2-0.6c1-0.4,1.7-1,2.3-1.6S65.9-50.7,66-51.3
			L66-51.3z"/>
	</g>
	<g id="text22">
		<path id="path61" class="st1" d="M81.4-47.4h5.3l-0.7,5h-5.3L81.4-47.4z"/>
	</g>
	<g id="text24">
		<path id="path64" class="st1" d="M107.5-46.3c1.4,0,2.7-0.2,3.9-0.6c1.3-0.4,2.4-1.1,3.5-1.9l3.4,3.3c-1.8,1.2-3.6,2.2-5.6,2.8
			c-1.9,0.6-3.9,0.9-5.8,0.9c-2.7,0-5.2-0.7-7.3-2c-2.1-1.3-3.7-3.1-4.8-5.3c-1-2.2-1.3-4.7-1-7.3c0.4-2.6,1.4-5.1,3-7.3
			c1.7-2.2,3.8-4,6.3-5.3c2.5-1.3,5.1-2,7.8-2c1.9,0,3.8,0.4,5.7,1.1c1.9,0.7,3.4,1.6,4.6,2.8l-4.2,3.2c-0.9-0.8-1.9-1.5-3-1.9
			c-1.2-0.5-2.4-0.7-3.8-0.7c-1.9,0-3.7,0.5-5.4,1.4c-1.7,0.9-3.1,2.1-4.3,3.7c-1.1,1.5-1.8,3.2-2.1,5c-0.3,1.8-0.1,3.5,0.6,5.1
			c0.7,1.5,1.8,2.8,3.3,3.7C103.9-46.7,105.6-46.3,107.5-46.3L107.5-46.3z"/>
	</g>
	<g id="text26">
		<path id="path67" class="st1" d="M141.6-71.3c2.8,0,5.3,0.7,7.5,2c2.2,1.3,3.8,3.1,4.9,5.4c1.1,2.3,1.4,4.7,1,7.4
			c-0.4,2.7-1.4,5.2-3.1,7.5s-3.9,4.1-6.4,5.5c-2.6,1.3-5.2,2-8,2c-2.8,0-5.3-0.7-7.5-2c-2.2-1.3-3.8-3.2-4.9-5.5
			c-1.1-2.3-1.4-4.8-1-7.5s1.4-5.2,3.2-7.4c1.7-2.3,3.9-4.1,6.4-5.4C136.2-70.6,138.8-71.3,141.6-71.3L141.6-71.3z M138.1-46.2
			c1.9,0,3.7-0.5,5.4-1.4c1.7-0.9,3.2-2.2,4.4-3.8c1.2-1.6,1.9-3.3,2.2-5.2c0.2-1.8,0-3.5-0.8-5c-0.7-1.5-1.8-2.8-3.3-3.7
			c-1.5-0.9-3.1-1.4-5-1.4c-1.9,0-3.8,0.5-5.5,1.4c-1.7,0.9-3.1,2.1-4.3,3.7c-1.2,1.5-1.9,3.2-2.2,5c-0.3,1.9,0,3.6,0.7,5.2
			s1.8,2.8,3.3,3.8C134.5-46.6,136.2-46.2,138.1-46.2L138.1-46.2z"/>
	</g>
	<g id="text28">
		<path id="path70" class="st2" d="M-60.6-18.9v4.1c0,0.3,0,0.6-0.1,0.8c-0.1,0.2-0.2,0.4-0.3,0.5c-0.1,0.1-0.3,0.2-0.6,0.3
			c-0.2,0.1-0.5,0.1-0.9,0.1l-0.9,0.1l-0.4-1.4l0.9-0.1c0.3,0,0.6-0.1,0.7-0.2c0.1-0.1,0.2-0.3,0.2-0.5v-3.7h-4.7l0.6-5.8
			c0.8,0,1.6-0.1,2.4-0.1c0.8-0.1,1.6-0.1,2.4-0.2c0.8-0.1,1.6-0.2,2.3-0.2c0.7-0.1,1.4-0.2,2-0.3l0.3,1.4c-0.6,0.1-1.2,0.2-1.9,0.3
			c-0.7,0.1-1.4,0.1-2.1,0.2c-0.7,0.1-1.4,0.1-2.1,0.2c-0.7,0-1.3,0.1-1.9,0.1l-0.3,3h3.2V-23l1.5,0.1v2.7h4.5v1.4H-60.6z
			 M-63.6-17.6c-0.2,0.3-0.4,0.6-0.7,1c-0.3,0.4-0.5,0.7-0.8,1.1c-0.3,0.4-0.6,0.7-0.9,1.1c-0.3,0.3-0.6,0.7-0.9,1l-1.1-1
			c0.3-0.3,0.6-0.6,0.9-0.9c0.3-0.3,0.6-0.7,0.9-1c0.3-0.3,0.5-0.7,0.8-1c0.2-0.3,0.5-0.7,0.6-1L-63.6-17.6z M-58.6-18.4
			c0.2,0.2,0.5,0.5,0.7,0.8c0.3,0.3,0.6,0.6,0.9,1c0.3,0.3,0.6,0.7,0.9,1c0.3,0.3,0.5,0.6,0.8,0.9l-1.1,1.1c-0.2-0.3-0.5-0.6-0.7-1
			c-0.3-0.4-0.6-0.7-0.8-1.1s-0.6-0.7-0.9-1c-0.3-0.3-0.5-0.6-0.8-0.9L-58.6-18.4z"/>
	</g>
	<g id="text30">
		<path id="path73" class="st2" d="M-47.4-14.6c2.3,0.1,4.7,0,7-0.1l-0.2,1.2c-1.2,0-2.3,0.1-3.5,0.1c-1.1,0-2.3,0-3.4,0
			c-0.5,0-1-0.1-1.4-0.1c-0.4-0.1-0.8-0.2-1.1-0.3c-0.3-0.1-0.6-0.3-0.8-0.6c-0.2-0.3-0.5-0.6-0.6-0.9c-0.1,0.4-0.2,0.8-0.3,1.1
			c-0.1,0.4-0.2,0.8-0.4,1.2l-1.1-0.4c0.2-0.4,0.3-0.8,0.4-1.3c0.1-0.4,0.2-0.8,0.3-1.3c0.1-0.4,0.2-0.9,0.2-1.4
			c0.1-0.5,0.1-1,0.1-1.6l1,0c0,0.4,0,0.7,0,1c0,0.3,0,0.6-0.1,0.9c0.2,0.6,0.4,1,0.7,1.4v-4.2h-2.2v-1.2h1.8v-1.5h-1.5v-1.2h1.5
			v-1.9l1.2,0v1.8h1.3v1.2h-1.3v1.5h1.4v1.2h-1.1v1.6h1.1v1.2h-1.1v2.2C-48.8-14.7-48.2-14.6-47.4-14.6L-47.4-14.6z M-47.8-24.1
			h-0.6v-1.2h4.5v1.2h-0.7v6.2c0.1,0,0.1,0,0.2-0.1c0.1,0,0.1,0,0.2-0.1l0.1,1.1c-0.1,0-0.2,0-0.3,0.1c-0.1,0-0.2,0.1-0.3,0.1v2
			h-1.1v-1.7c-0.5,0.1-0.9,0.2-1.4,0.3s-0.9,0.2-1.4,0.3l-0.2-1.1l0.8-0.1V-24.1z M-45.7-24.1h-1v1.4h1V-24.1z M-40.9-23.1
			c-0.1,0.9-0.3,1.7-0.4,2.4c-0.1,0.7-0.3,1.4-0.5,2c0.2,0.5,0.4,1,0.6,1.5c0.2,0.5,0.4,1,0.6,1.5l-0.9,0.6
			c-0.1-0.3-0.3-0.7-0.4-1.1c-0.1-0.4-0.3-0.8-0.4-1.1c-0.2,0.4-0.3,0.7-0.5,1.1c-0.2,0.4-0.4,0.7-0.7,1.1l-0.9-0.8
			c0.4-0.5,0.7-1,0.9-1.4c0.3-0.5,0.5-1,0.6-1.5c-0.2-0.6-0.5-1.2-0.7-1.8c-0.2-0.6-0.5-1.1-0.7-1.6l0.9-0.4l1,2.3
			c0.1-0.4,0.2-0.9,0.3-1.3c0.1-0.4,0.1-0.9,0.2-1.3h-2.2V-24h3.3V-23.1z M-45.7-21.4h-1v1.3h1V-21.4z M-45.7-17.5v-1.4h-1v1.6
			L-45.7-17.5z"/>
	</g>
	<g id="text32">
		<path id="path76" class="st2" d="M-38-19v-1.6h12.4v1.6H-38z"/>
	</g>
	<g id="text34">
		<path id="path79" class="st2" d="M-12.2-16.9h-9.3v-4.8h3.6v-3.8l1.4,0.1v1.1h5.2v1.4h-5.2v1.2h4.3V-16.9z M-13.6-20.4h-6.6v2.1
			h6.6L-13.6-20.4z M-12.5-16.8c0.3,0.5,0.6,1,0.9,1.5c0.3,0.5,0.6,1,0.8,1.4L-12-13c-0.1-0.2-0.2-0.5-0.3-0.7
			c-0.1-0.3-0.3-0.5-0.4-0.8c-0.1-0.3-0.3-0.6-0.5-0.9c-0.1-0.3-0.3-0.5-0.4-0.8L-12.5-16.8z M-23.1-13.6c0.2-0.2,0.3-0.5,0.5-0.8
			c0.2-0.3,0.3-0.5,0.4-0.8s0.3-0.6,0.4-0.8c0.1-0.3,0.2-0.5,0.3-0.7l1.2,0.5c-0.1,0.3-0.2,0.6-0.3,0.9c-0.1,0.3-0.3,0.6-0.4,0.9
			c-0.1,0.3-0.3,0.6-0.4,0.9c-0.1,0.3-0.3,0.5-0.4,0.8L-23.1-13.6z M-15.3-16.5c0.1,0.2,0.2,0.4,0.3,0.7c0.1,0.2,0.2,0.5,0.3,0.8
			c0.1,0.3,0.2,0.5,0.2,0.7c0.1,0.2,0.1,0.5,0.2,0.6l-1.2,0.4c0-0.2-0.1-0.4-0.2-0.7c-0.1-0.2-0.1-0.5-0.2-0.7
			c-0.1-0.3-0.2-0.5-0.3-0.8c-0.1-0.3-0.2-0.5-0.3-0.7L-15.3-16.5z M-18.1-16.4c0.1,0.2,0.1,0.5,0.2,0.7c0.1,0.3,0.1,0.5,0.2,0.8
			c0.1,0.3,0.1,0.5,0.1,0.8c0,0.2,0.1,0.5,0.1,0.6l-1.3,0.3c0-0.5-0.1-1-0.2-1.5c-0.1-0.5-0.2-1-0.3-1.4L-18.1-16.4z"/>
	</g>
	<g id="text36">
		<path id="path82" class="st2" d="M-3.1-14.3c-0.7,0-1.3-0.1-1.9-0.2c-0.6-0.1-1-0.4-1.4-0.8c-0.4-0.4-0.7-0.9-0.9-1.5
			c-0.2-0.7-0.3-1.5-0.3-2.5c0-0.9,0.1-1.7,0.3-2.4c0.2-0.6,0.5-1.2,0.9-1.6S-5.6-23.8-5-24c0.6-0.2,1.2-0.3,1.9-0.3
			c0.5,0,0.9,0,1.2,0.1c0.4,0,0.7,0.1,1,0.2v1.6c-0.3-0.1-0.6-0.2-1-0.2c-0.3-0.1-0.7-0.1-1.1-0.1c-0.5,0-0.9,0.1-1.2,0.2
			c-0.3,0.1-0.6,0.3-0.9,0.6c-0.2,0.3-0.4,0.6-0.5,1.1c-0.1,0.4-0.2,1-0.2,1.6c0,0.7,0.1,1.2,0.2,1.7c0.1,0.4,0.3,0.8,0.5,1.1
			c0.2,0.3,0.5,0.4,0.8,0.5c0.3,0.1,0.8,0.1,1.2,0.1c0.4,0,0.8,0,1.2-0.1c0.4-0.1,0.7-0.2,1.1-0.3v1.6c-0.3,0.1-0.6,0.2-1.1,0.3
			C-2.2-14.3-2.7-14.3-3.1-14.3L-3.1-14.3z"/>
	</g>
	<g id="text38">
		<path id="path85" class="st2" d="M7.3-14.3c-0.7,0-1.3-0.1-1.9-0.2s-1-0.4-1.4-0.8c-0.4-0.4-0.6-0.9-0.8-1.5
			C3.1-17.5,3-18.3,3-19.3c0-1,0.1-1.8,0.3-2.4c0.2-0.6,0.5-1.2,0.8-1.5c0.4-0.4,0.8-0.6,1.4-0.8c0.5-0.2,1.2-0.2,1.9-0.2
			s1.3,0.1,1.8,0.2c0.5,0.1,1,0.4,1.4,0.8c0.4,0.4,0.7,0.9,0.8,1.5c0.2,0.6,0.3,1.5,0.3,2.4c0,1-0.1,1.8-0.3,2.4
			c-0.2,0.6-0.5,1.2-0.8,1.5c-0.4,0.4-0.8,0.6-1.4,0.8C8.7-14.3,8-14.3,7.3-14.3z M7.3-15.8c0.5,0,0.9-0.1,1.2-0.2
			c0.3-0.1,0.6-0.3,0.7-0.6c0.2-0.3,0.3-0.6,0.4-1.1s0.1-1,0.1-1.6c0-0.6,0-1.1-0.1-1.6c-0.1-0.4-0.2-0.8-0.4-1.1s-0.4-0.5-0.7-0.6
			c-0.3-0.1-0.7-0.2-1.2-0.2s-0.9,0.1-1.2,0.2c-0.3,0.1-0.6,0.3-0.7,0.6c-0.2,0.3-0.3,0.6-0.4,1.1c-0.1,0.4-0.1,1-0.1,1.6
			c0,0.6,0,1.2,0.1,1.6c0.1,0.4,0.2,0.8,0.4,1.1c0.2,0.3,0.4,0.5,0.7,0.6C6.4-15.9,6.8-15.8,7.3-15.8z"/>
	</g>
</g>
</svg>
