<?xml version="1.0" standalone="no"?><!DOCTYPE svg PUBLIC "-//W3C//DTD SVG 1.1//EN" "http://www.w3.org/Graphics/SVG/1.1/DTD/svg11.dtd"><svg t="1638717009814" class="icon" viewBox="0 0 1024 1024" version="1.1" xmlns="http://www.w3.org/2000/svg" p-id="2230" xmlns:xlink="http://www.w3.org/1999/xlink" width="81" height="81"><defs><style type="text/css"></style></defs><path d="M546.048 609.3312a60.8256 60.8256 0 0 0-38.912-13.7728l-19.456 0.1024-4.7104 0.256-0.6144 0.1024a60.928 60.928 0 0 0-36.7104 17.4592L266.5472 792.576l-3.2768 3.6352-0.4096 0.512a60.8256 60.8256 0 0 0 4.1472 81.408l0.512 0.4608 3.584 3.2768 0.512 0.4096a60.8256 60.8256 0 0 0 81.408-4.1472l145.1008-145.1008 145.5616 145.5616 3.6864 3.2768 0.512 0.4608a60.8256 60.8256 0 0 0 81.408-90.1632l-179.2-179.2-3.5328-3.2256-0.512-0.4096z" fill="#73DEBF" p-id="2231"></path><path d="M716.8 307.0464H307.2v255.7952h409.6V307.0464z m-512-102.4v377.7536c0 46.1824 36.6592 82.8416 81.92 82.8416h450.56c45.2608 0 81.92-36.6592 81.92-82.8416V204.6464H204.8z" fill="#94E1E8" p-id="2232"></path><path d="M512 102.4a51.2 51.2 0 0 0-51.2 51.2v51.2H153.6a51.2 51.2 0 0 0 0 102.4h716.8a51.2 51.2 0 1 0 0-102.4h-307.2V153.6a51.2 51.2 0 0 0-51.2-51.2z" fill="#73DEBF" p-id="2233"></path></svg>